<?xml version="1.0" standalone="no"?>
<!DOCTYPE svg PUBLIC "-//W3C//DTD SVG 20010904//EN"
 "http://www.w3.org/TR/2001/REC-SVG-20010904/DTD/svg10.dtd">
<svg version="1.0" xmlns="http://www.w3.org/2000/svg"
 width="1024.000000pt" height="1024.000000pt" viewBox="0 0 1024.000000 1024.000000"
 preserveAspectRatio="xMidYMid meet">
<metadata>
Created by potrace 1.14, written by Peter Selinger 2001-2017
</metadata>
<g transform="translate(0.000000,1024.000000) scale(0.100000,-0.100000)"
fill="#000000" stroke="none">
<path d="M4858 10225 c-2 -2 -48 -6 -103 -10 -55 -3 -116 -7 -135 -10 -19 -2
-75 -9 -125 -15 -104 -13 -150 -19 -185 -25 -14 -3 -43 -8 -65 -11 -102 -15
-353 -73 -555 -128 -85 -23 -377 -123 -455 -156 -365 -154 -618 -285 -895
-463 -52 -34 -99 -65 -105 -70 -5 -4 -46 -33 -90 -64 -44 -32 -82 -60 -85 -63
-3 -3 -21 -17 -40 -30 -19 -13 -71 -54 -115 -90 -168 -137 -235 -198 -425
-389 -245 -247 -429 -473 -627 -771 -134 -203 -178 -278 -302 -520 -165 -323
-315 -729 -400 -1080 -25 -107 -66 -306 -76 -375 -2 -11 -6 -33 -9 -50 -5 -31
-30 -229 -40 -320 -30 -273 -24 -764 11 -1045 4 -30 8 -59 8 -65 5 -41 18
-143 20 -155 2 -8 6 -33 9 -55 4 -23 9 -52 11 -65 47 -239 58 -286 100 -441
84 -311 192 -593 346 -904 116 -237 131 -265 232 -426 64 -104 214 -329 226
-339 3 -3 26 -32 50 -65 40 -54 148 -193 161 -205 3 -3 39 -43 79 -90 599
-683 1377 -1197 2246 -1485 134 -44 410 -120 505 -139 14 -3 36 -7 50 -10 45
-10 74 -16 105 -20 17 -3 71 -12 120 -21 50 -8 113 -18 140 -21 28 -3 61 -7
75 -10 93 -15 226 -19 605 -19 406 0 507 4 650 25 33 5 80 12 105 15 25 3 83
13 130 21 47 8 99 17 115 20 17 3 46 9 65 14 19 5 49 12 65 15 25 4 308 78
340 88 6 2 44 14 85 26 41 12 89 29 107 37 17 8 36 14 41 14 6 0 91 32 189 71
210 84 472 210 633 304 63 37 129 75 145 85 190 109 506 343 734 544 85 75
411 404 456 461 22 28 45 55 51 60 19 16 196 244 261 335 320 448 578 976 737
1510 42 139 92 343 112 450 28 151 36 199 39 225 2 17 7 47 10 68 9 51 12 79
20 167 4 41 11 107 15 145 9 74 6 826 -2 860 -3 11 -9 56 -13 100 -4 44 -9 91
-12 105 -2 14 -6 39 -8 55 -8 77 -37 238 -70 388 -88 404 -239 831 -417 1182
-60 118 -121 230 -140 257 -10 14 -18 29 -18 32 0 9 -124 205 -199 316 -86
126 -203 279 -320 420 -103 123 -415 441 -520 531 -35 30 -69 59 -75 64 -6 6
-36 30 -66 55 -30 25 -57 47 -60 50 -38 40 -392 285 -545 377 -150 91 -517
283 -539 283 -3 0 -33 13 -68 28 -35 16 -83 37 -108 47 -25 10 -58 23 -75 30
-65 28 -333 118 -430 145 -114 32 -151 42 -165 45 -8 2 -58 13 -110 25 -52 12
-104 24 -115 26 -39 8 -191 35 -225 40 -19 2 -46 6 -60 9 -14 3 -45 7 -70 10
-25 3 -61 7 -80 10 -19 3 -66 7 -105 11 -38 3 -86 8 -105 10 -43 6 -647 14
-652 9z"/>
</g>
</svg>
